<svg version="1.1" viewBox="0.0 0.0 353.7795275590551 100.0" fill="none" stroke="none" stroke-linecap="square" stroke-miterlimit="10" xmlns:xlink="http://www.w3.org/1999/xlink" xmlns="http://www.w3.org/2000/svg"><clipPath id="p.0"><path d="m0 0l353.77954 0l0 100.0l-353.77954 0l0 -100.0z" clip-rule="nonzero"/></clipPath><g clip-path="url(#p.0)"><path fill="#000000" fill-opacity="0.0" d="m0 0l353.77954 0l0 100.0l-353.77954 0z" fill-rule="evenodd"/><path fill="#000000" fill-opacity="0.0" d="m-0.007647769 9.606299l353.7953 0l0 80.7874l-353.7953 0z" fill-rule="evenodd"/><path fill="#000000" d="m26.333508 63.34005l0 -29.984375l-6.25 0.25l-2.28125 11.296875l-4.515624 0l0.8125 -15.296877l33.234375 0l0.8125 15.296877l-4.515625 0l-2.234375 -11.296875l-6.296875 -0.25l0 29.984375l6.765625 0.5625l0 3.34375l-22.296875 0l0 -3.34375l6.765625 -0.5625zm24.230026 3.90625l0 -3.3125l3.09375 -0.46875l0 -19.046875l-3.015625 -0.9375l0 -3.96875l8.421875 -1.09375l0.140625 0l1.453125 1.0625l0 1.21875l-0.1875 4.40625l0.1875 0q0.21875 -0.78125 0.96875 -1.875q0.75 -1.109375 1.9375 -2.1875q1.1875038 -1.078125 2.7500038 -1.78125q1.5625 -0.71875 3.375 -0.71875q0.71875 0 1.234375 0.125q0.515625 0.109375 0.828125 0.234375l0 8.40625q-0.609375 -0.453125 -1.578125 -0.6875q-0.953125 -0.25 -2.609375 -0.25q-1.34375 0 -2.453125 0.265625q-1.09375 0.265625 -1.8906288 0.625q-0.796875 0.359375 -1.28125 0.6875l0 15.5l5.578129 0.484375l0 3.3125l-16.953129 0zm31.33469 0.5625q-2.296875 0 -4.25 -1.015625q-1.953125 -1.015625 -3.140625 -2.953125q-1.171875 -1.9375 -1.171875 -4.703125q0 -2.296875 1.234375 -4.03125q1.234375 -1.734375 3.4375 -2.890625q2.21875 -1.15625 5.21875 -1.75q3.0 -0.59375 6.546875 -0.625l0 -0.984375q0 -1.75 -0.375 -2.84375q-0.359375 -1.109375 -1.4375 -1.640625q-1.0625 -0.53125 -3.171875 -0.53125q-2.90625 0 -5.078125 0.796875q-2.171875 0.78125 -3.375 1.328125l-1.78125 -3.671875q0.65625 -0.53125 2.421875 -1.453125q1.765625 -0.921875 4.328125 -1.671875q2.578125 -0.75 5.640625 -0.75q4.046875 0 6.34375 1.171875q2.3125 1.15625 3.28125 3.46875q0.984375 2.296875 0.984375 5.78125l0 14.984375l2.609375 0l0 3.1875q-0.578125 0.140625 -1.78125 0.3125q-1.1875 0.171875 -2.546875 0.3125q-1.34375 0.140625 -2.4375 0.140625q-1.953125 0 -2.578125 -0.5625q-0.609375 -0.578125 -0.609375 -2.171875l0 -1.171875q-0.640625 0.8125 -1.8125 1.75q-1.15625 0.921875 -2.796875 1.5625q-1.625 0.625 -3.703125 0.625zm3.921875 -4.640625q0.9375 0 2.046875 -0.546875q1.125 -0.546875 1.90625 -1.296875l0 -8.078125q-2.78125 0 -4.5 0.71875q-1.703125 0.71875 -2.46875 1.875q-0.75 1.140625 -0.75 2.484375q0 1.53125 0.46875 2.609375q0.46875 1.0625 1.3125 1.65625q0.859375 0.578125 1.984375 0.578125zm26.170654 4.484375l-9.65625 -24.703125l-2.21875 -0.625l0 -3.25l14.390625 0l0 3.25l-2.921875 0.625l3.84375 13.359375l1.296875 4.609375l1.09375 -4.53125l4.328125 -13.4375l-3.09375 -0.625l0 -3.25l11.734375 0l0 3.25l-2.65625 0.625l-9.375 24.703125l-6.765625 0zm33.05191 0.15625q-4.828125 0 -7.84375 -1.875q-3.0 -1.875 -4.375 -5.171875q-1.375 -3.3125 -1.375 -7.59375q0 -3.53125 0.984375 -6.265625q0.984375 -2.75 2.8125 -4.65625q1.828125 -1.90625 4.375 -2.890625q2.5625 -0.984375 5.703125 -0.984375q5.375 0 8.140625 2.734375q2.78125 2.71875 2.875 7.546875q0 1.71875 -0.125 3.0q-0.109375 1.265625 -0.296875 2.21875l-15.890625 0q0.125 2.15625 0.65625 3.8125q0.53125 1.640625 1.4375 2.765625q0.921875 1.125 2.203125 1.703125q1.296875 0.5625 3.0 0.5625q2.03125 0 4.0625 -0.6875q2.046875 -0.703125 3.1875 -1.421875l1.40625 3.0625q-0.75 0.84375 -2.421875 1.8125q-1.671875 0.953125 -3.890625 1.640625q-2.21875 0.6875 -4.625 0.6875zm-5.0625 -17.296875l8.28125 0q0.03125 -0.546875 0.0625 -1.0625q0.03125 -0.515625 0.03125 -1.046875q0 -2.984375 -0.828125 -4.75q-0.8125 -1.765625 -2.96875 -1.765625q-0.953125 0 -1.765625 0.375q-0.8125 0.359375 -1.4375 1.296875q-0.609375 0.921875 -0.96875 2.609375q-0.359375 1.671875 -0.40625 4.34375zm22.142654 12.90625l0 -32.75l-3.578125 -0.671875l0 -3.078125l10.15625 -1.1875l0.125 0l1.5 1.0625l0 36.65625l3.28125 0.453125l0 3.34375l-14.734375 0l0 -3.34375l3.25 -0.484375z" fill-rule="nonzero"/><path fill="#000000" d="m200.33452 64.043175q-3.234375 3.703125 -6.75 3.703125q-3.140625 0 -5.234375 -2.3125q-2.09375 -2.328125 -2.09375 -6.75q0 -4.03125 1.65625 -7.375q1.65625 -3.34375 4.140625 -5.015625q2.5 -1.671875 4.984375 -1.671875q4.125 0 6.234375 3.984375l2.5 -11.890625l3.75 0l-6.375 30.53125l-3.484375 0l0.671875 -3.203125zm-10.328125 -6.0625q0 2.3125 0.453125 3.640625q0.46875 1.328125 1.5625 2.21875q1.109375 0.890625 2.65625 0.890625q2.546875 0 4.640625 -2.671875q2.78125 -3.546875 2.78125 -8.75q0 -2.625 -1.375 -4.09375q-1.375 -1.484375 -3.453125 -1.484375q-1.359375 0 -2.46875 0.609375q-1.109375 0.59375 -2.203125 2.046875q-1.09375 1.453125 -1.84375 3.6875q-0.75 2.21875 -0.75 3.90625zm19.801498 0.875q0 -6.484375 3.8125 -10.734375q3.15625 -3.5 8.25 -3.5q4.0 0 6.4375 2.5q2.453125 2.5 2.453125 6.75q0 3.8125 -1.546875 7.09375q-1.53125 3.28125 -4.375 5.03125q-2.84375 1.75 -5.984375 1.75q-2.578125 0 -4.703125 -1.09375q-2.109375 -1.109375 -3.234375 -3.125q-1.109375 -2.03125 -1.109375 -4.671875zm3.78125 -0.375q0 3.125 1.5 4.734375q1.5 1.609375 3.796875 1.609375q1.21875 0 2.40625 -0.484375q1.1875 -0.484375 2.203125 -1.484375q1.015625 -1.0 1.734375 -2.28125q0.71875 -1.28125 1.15625 -2.765625q0.65625 -2.0625 0.65625 -3.953125q0 -3.0 -1.515625 -4.65625q-1.515625 -1.65625 -3.796875 -1.65625q-1.78125 0 -3.234375 0.84375q-1.453125 0.84375 -2.640625 2.46875q-1.171875 1.625 -1.71875 3.78125q-0.546875 2.15625 -0.546875 3.84375zm28.098373 5.703125l-0.625 3.078125q-1.359375 0.359375 -2.625 0.359375q-2.25 0 -3.59375 -1.109375q-1.0 -0.828125 -1.0 -2.265625q0 -0.734375 0.546875 -3.359375l2.6875 -12.84375l-2.984375 0l0.609375 -2.921875l2.984375 0l1.140625 -5.4375l4.3125 -2.59375l-1.6875 8.03125l3.703125 0l-0.625 2.921875l-3.6875 0l-2.5625 12.21875q-0.46875 2.34375 -0.46875 2.796875q0 0.671875 0.375 1.03125q0.390625 0.34375 1.265625 0.34375q1.25 0 2.234375 -0.25z" fill-rule="nonzero"/><path fill="#000000" d="m274.06192 67.824425q-3.40625 0 -5.375 -1.21875q-1.96875 -1.234375 -2.8125 -3.390625q-0.828125 -2.15625 -0.828125 -5.046875l0 -11.03125l-6.578125 0l0 -2.984375l6.71875 -0.234375l0.53125 -7.484375l3.265625 0l0 7.484375l11.46875 0l0 3.21875l-11.46875 0l0 11.078125q0 2.078125 0.515625 3.515625q0.53125 1.4375 1.828125 2.15625q1.296875 0.71875 3.5625 0.71875q1.671875 0 3.015625 -0.28125q1.34375 -0.296875 2.59375 -0.78125l0.859375 2.890625q-1.578125 0.578125 -3.328125 0.984375q-1.75 0.40625 -3.96875 0.40625zm12.971924 -0.578125l8.875 -12.09375l-8.203125 -11.234375l4.359375 0l3.703125 5.140625q0.625 0.90625 1.34375 1.921875q0.71875 1.0 1.390625 2.015625l0.1875 0q0.625 -1.015625 1.3125 -2.046875q0.703125 -1.03125 1.328125 -1.984375l3.5 -5.046875l4.1875 0l-8.3125 11.5625l8.9375 11.765625l-4.328125 0l-4.078125 -5.375q-0.71875 -1.015625 -1.515625 -2.109375q-0.796875 -1.109375 -1.5625 -2.109375l-0.1875 0q-0.71875 1.0 -1.4375 2.0625q-0.71875 1.046875 -1.4375 2.15625l-3.84375 5.375l-4.21875 0zm44.628204 0.578125q-3.40625 0 -5.375 -1.21875q-1.96875 -1.234375 -2.8125 -3.390625q-0.828125 -2.15625 -0.828125 -5.046875l0 -11.03125l-6.578125 0l0 -2.984375l6.71875 -0.234375l0.53125 -7.484375l3.265625 0l0 7.484375l11.46875 0l0 3.21875l-11.46875 0l0 11.078125q0 2.078125 0.515625 3.515625q0.53125 1.4375 1.828125 2.15625q1.296875 0.71875 3.5625 0.71875q1.671875 0 3.015625 -0.28125q1.34375 -0.296875 2.59375 -0.78125l0.859375 2.890625q-1.578125 0.578125 -3.328125 0.984375q-1.75 0.40625 -3.96875 0.40625z" fill-rule="nonzero"/></g></svg>